# Blender v2.91.2 OBJ File: ''
# www.blender.org
mtllib CornerBase.mtl
o corner-with-borders_Cube.022
v -2.250000 1.000000 1.000000
v -2.250000 1.000000 -1.000000
v -2.250000 -1.000000 -1.000000
v -2.250000 -1.000000 1.000000
v -1.000000 1.000000 -1.000000
v -1.000000 1.000000 -2.250000
v -1.000000 -1.000000 -2.250000
v -1.000000 -1.000000 -1.000000
v 1.000000 1.000000 -2.250000
v 1.000000 -1.000000 -2.250000
v 1.000000 1.000000 1.000000
v 1.000000 -1.000000 1.000000
v -2.250000 1.000000 -1.000000
v -2.250000 0.600000 -1.000000
v -2.250000 1.000000 1.000000
v 1.000000 1.000000 1.000000
v 1.000000 0.600000 1.000000
v -2.250000 0.600000 1.000000
v -1.000000 1.000000 -2.250000
v -1.000000 0.600000 -2.250000
v -1.000000 1.000000 -1.000000
v -1.000000 0.600000 -1.000000
v 1.000000 1.000000 1.000000
v 1.000000 1.000000 -2.250000
v 1.000000 0.600000 -2.250000
v 1.000000 0.600000 1.000000
vt 0.000915 0.362414
vt 0.000915 0.140220
vt 0.223109 0.140220
vt 0.223109 0.362415
vt 0.000913 0.320757
vt 0.000913 0.181884
vt 0.223110 0.181884
vt 0.223110 0.320757
vt 0.000915 0.362414
vt 0.000915 0.140220
vt 0.223109 0.140220
vt 0.223109 0.362415
vt 0.000911 0.431852
vt 0.000911 0.070782
vt 0.223108 0.070782
vt 0.223108 0.431852
vt 0.223109 0.362415
vt 0.000915 0.140220
vt 0.000914 0.001351
vt 0.223106 0.001351
vt 0.448600 0.362429
vt 0.226400 0.140228
vt 0.226400 0.001352
vt 0.448600 0.001352
vt 0.054721 0.002602
vt 0.054722 0.605996
vt 0.001087 0.605996
vt 0.001087 0.002602
vt 0.054722 0.304302
vt 0.054722 0.605996
vt 0.001087 0.605996
vt 0.001087 0.304302
vt 0.054721 0.002602
vt 0.054722 0.605996
vt 0.001087 0.605996
vt 0.001087 0.002602
vt 0.226416 0.001349
vt 0.448610 0.001349
vt 0.448610 0.140221
vt 0.226415 0.362415
vt 0.000914 0.001351
vt 0.223106 0.001351
vt 0.223109 0.140220
vt 0.000915 0.362414
vt 0.000911 0.431852
vt 0.000911 0.070782
vt 0.223108 0.070782
vt 0.223108 0.431852
vt 0.000913 0.320757
vt 0.000913 0.181884
vt 0.223110 0.181884
vt 0.223110 0.320757
vt 0.054721 0.002602
vt 0.001087 0.002602
vn -1.0000 0.0000 0.0000
vn 0.0000 0.0000 -1.0000
vn 0.0000 -0.0000 1.0000
vn -0.0000 -1.0000 -0.0000
vn 0.0000 1.0000 0.0000
vn 1.0000 -0.0000 0.0000
usemtl None.002
s off
f 1/1/1 2/2/1 3/3/1 4/4/1
f 5/5/1 6/6/1 7/7/1 8/8/1
f 6/9/2 9/10/2 10/11/2 7/12/2
f 11/13/3 1/14/3 4/15/3 12/16/3
f 12/17/4 8/18/4 7/19/4 10/20/4
f 11/21/5 5/22/5 2/23/5 1/24/5
f 15/25/2 16/26/2 17/27/2 18/28/2
f 21/29/3 13/30/3 14/31/3 22/32/3
f 23/33/1 24/34/1 25/35/1 26/36/1
f 9/37/5 6/38/5 5/39/5 11/40/5
f 4/41/4 3/42/4 8/43/4 12/44/4
f 9/45/6 11/46/6 12/47/6 10/48/6
f 2/49/2 5/50/2 8/51/2 3/52/2
f 19/53/6 21/29/6 22/32/6 20/54/6
