# Blender v2.91.2 OBJ File: 'BorderPiece.blend'
# www.blender.org
mtllib widePieceOk.mtl
o t-road-with-borders_Cube.113
v 1.832907 0.411696 1.829549
v 2.232102 0.411696 2.230353
v 2.234620 0.411696 0.980355
v 1.834620 0.411696 0.979550
v 1.832907 0.011696 1.829549
v 2.232102 0.011696 2.230353
v 0.982104 0.011696 2.227834
v 0.982910 0.011696 1.827837
v 1.834620 0.011696 0.979550
v 0.982105 0.411696 2.227835
v 0.982910 0.411696 1.827837
v 2.234620 0.011696 0.980356
v 1.559255 0.649345 2.032511
v 1.559665 0.649345 1.828998
v 1.559665 0.411696 1.828998
v 1.559255 0.411696 2.032511
v 1.832907 0.649345 1.829549
v 1.833458 0.649345 1.556305
v 1.833458 0.411696 1.556305
v 1.832907 0.411696 1.829549
v 2.036011 0.649345 2.033471
v 2.036972 0.649345 1.556715
v 2.036972 0.411696 1.556715
v 2.036011 0.411696 2.033471
vt 0.054722 0.116582
vt 0.001086 0.170223
vt 0.001087 0.002607
vt 0.054721 0.002607
vt 0.001087 0.304302
vt 0.054722 0.304302
vt 0.054722 0.605996
vt 0.001087 0.605996
vt 0.001087 0.116582
vt 0.001087 0.002607
vt 0.054721 0.002607
vt 0.054722 0.116582
vt 0.081559 0.208121
vt 0.081559 0.149483
vt 0.140198 0.149483
vt 0.140198 0.208121
vt 0.001085 0.388108
vt 0.001085 0.220495
vt 0.054721 0.220495
vt 0.054721 0.388108
vt 0.081422 0.238144
vt 0.081422 0.179506
vt 0.140060 0.179506
vt 0.140060 0.238144
vt 0.001085 0.388108
vt 0.001085 0.220495
vt 0.054721 0.220495
vt 0.054721 0.388108
vt 0.001087 0.116582
vt 0.001087 0.002607
vt 0.054721 0.002607
vt 0.054722 0.116582
vt 0.001087 0.002607
vt 0.054721 0.002607
vt 0.054723 0.170223
vt 0.001086 0.170223
vt 0.001087 0.002607
vt 0.054723 0.056244
vt 0.111176 0.251563
vt 0.111176 0.196104
vt 0.139421 0.196104
vt 0.139421 0.251563
vt 0.054954 0.307670
vt 0.054954 0.252857
vt 0.083783 0.252857
vt 0.083783 0.307670
vt 0.082886 0.307779
vt 0.056127 0.307779
vt 0.056127 0.254131
vt 0.082886 0.254131
vt 0.111176 0.251563
vt 0.111176 0.196104
vt 0.139421 0.196104
vt 0.139421 0.251563
vt 0.054954 0.307670
vt 0.054954 0.252857
vt 0.083783 0.252857
vt 0.083783 0.307670
vt 0.056127 0.307779
vt 0.082886 0.307779
vt 0.082886 0.361427
vt 0.056127 0.361427
vt 0.056127 0.254131
vt 0.082886 0.254131
vt 0.054954 0.362483
vt 0.083783 0.362483
vt 0.082886 0.361427
vt 0.056127 0.361427
vt 0.054954 0.362483
vt 0.083783 0.362483
vn -0.0000 1.0000 -0.0000
vn -0.0000 -1.0000 0.0000
vn -1.0000 0.0000 -0.0020
vn -0.0020 -0.0000 1.0000
vn 0.0020 -0.0000 -1.0000
vn 1.0000 0.0000 0.0020
usemtl None.001
s off
f 1/1/1 2/2/1 3/3/1 4/4/1
f 5/5/2 6/6/2 7/7/2 8/8/2
f 1/9/3 4/10/3 9/11/3 5/12/3
f 10/13/3 11/14/3 8/15/3 7/16/3
f 2/17/4 10/18/4 7/19/4 6/20/4
f 4/21/5 3/22/5 12/23/5 9/24/5
f 3/25/6 2/26/6 6/27/6 12/28/6
f 11/29/5 1/30/5 5/31/5 8/32/5
f 9/33/2 12/34/2 6/6/2 5/5/2
f 11/35/1 10/36/1 2/37/1 1/38/1
f 13/39/3 14/40/3 15/41/3 16/42/3
f 17/43/3 18/44/3 19/45/3 20/46/3
f 21/47/1 17/48/1 14/49/1 13/50/1
f 18/51/5 22/52/5 23/53/5 19/54/5
f 21/55/4 13/56/4 16/57/4 24/58/4
f 24/59/2 20/60/2 19/61/2 23/62/2
f 16/63/2 15/64/2 20/60/2 24/59/2
f 22/65/6 21/55/6 24/58/6 23/66/6
f 22/67/1 18/68/1 17/48/1 21/47/1
f 14/69/5 17/43/5 20/46/5 15/70/5
o square-tower_Cube.006
v 1.600000 0.009883 1.600001
v 1.600000 0.009884 -1.599999
v -1.600000 0.009884 -1.599999
v -1.600000 0.009883 1.600001
v 1.600000 -7.190117 -1.600001
v -1.600000 -7.190117 -1.600001
v 1.600000 -7.190117 1.599999
v -1.600000 -7.190117 1.599999
v -1.600000 0.009883 1.600001
v -1.600002 0.009884 -1.599999
v -2.240000 0.009884 -2.239998
v -2.240000 0.009883 2.240000
v 2.239999 0.009884 -2.240000
v 1.600000 0.009884 -1.599999
v -1.600000 0.009884 -1.599999
v -2.240000 0.009884 -2.239998
v -2.240000 0.009883 2.240000
v -1.600000 0.009883 1.600001
v 1.600000 0.009883 1.600001
v 2.240000 0.009883 2.239999
v -2.240002 0.009884 -2.240000
v -1.600000 0.009884 -1.599999
v 1.600000 0.009884 -1.599999
v 2.239999 0.009884 -2.240000
v -1.600000 -0.630116 -1.600000
v 1.600000 -0.630116 -1.600000
v 2.240000 0.009883 2.239999
v -2.240000 0.009883 2.240000
v -1.600000 -0.630117 1.600001
v 1.600000 -0.630117 1.599999
v -1.600000 0.009883 1.600001
v 1.600000 0.009883 1.599999
v 1.599998 0.009884 -1.599999
v 1.600000 0.009883 1.600001
v 2.240000 0.009883 2.240000
v 2.239999 0.009884 -2.240000
v -2.240000 0.009883 2.240002
v -1.600000 0.009883 1.600001
v -1.600000 0.009884 -1.599999
v -2.240002 0.009884 -2.239998
v -1.600000 -0.630117 1.600001
v -1.600000 -0.630116 -1.600000
v 2.239999 0.009884 -2.240001
v 2.240000 0.009883 2.239999
v 1.600000 -0.630117 1.600001
v 1.599998 -0.630116 -1.600000
v 1.600000 0.009883 1.600001
v 1.599998 0.009884 -1.599999
vt 0.225274 0.140527
vt 0.225274 0.001656
vt 0.364145 0.001656
vt 0.364145 0.140527
vt 0.226416 0.501284
vt 0.226416 0.001351
vt 0.448609 0.001351
vt 0.448609 0.501284
vt 0.223109 0.140220
vt 0.223109 0.362415
vt 0.000915 0.362414
vt 0.000915 0.140220
vt 0.448609 0.001351
vt 0.448609 0.501284
vt 0.226416 0.501284
vt 0.226416 0.001351
vt 0.448609 0.501284
vt 0.226416 0.501284
vt 0.226416 0.001351
vt 0.448609 0.001351
vt 0.226416 0.001351
vt 0.448609 0.001351
vt 0.448609 0.501284
vt 0.226416 0.501284
vt 0.001088 0.116586
vt 0.054721 0.170214
vt 0.054721 0.438390
vt 0.001088 0.492019
vt 0.001088 0.116586
vt 0.054721 0.170214
vt 0.054721 0.438390
vt 0.001088 0.492019
vt 0.001088 0.116586
vt 0.054721 0.170214
vt 0.054721 0.438390
vt 0.001088 0.492019
vt 0.054722 0.605996
vt 0.001087 0.605996
vt 0.001087 0.002607
vt 0.054721 0.002607
vt 0.001359 0.437038
vt 0.001359 0.171568
vt 0.054453 0.171568
vt 0.054453 0.437038
vt 0.054720 0.171568
vt 0.054720 0.437037
vt 0.001087 0.399113
vt 0.001087 0.209492
vt 0.001359 0.437038
vt 0.001359 0.171568
vt 0.054453 0.171568
vt 0.054453 0.437038
vt 0.054722 0.605996
vt 0.001087 0.605996
vt 0.001087 0.002607
vt 0.054721 0.002607
vt 0.054720 0.171568
vt 0.054720 0.437037
vt 0.001087 0.399113
vt 0.001087 0.209492
vt 0.001088 0.116586
vt 0.054721 0.170214
vt 0.054721 0.438390
vt 0.001088 0.492019
vt 0.054722 0.605996
vt 0.001087 0.605996
vt 0.001087 0.002607
vt 0.054721 0.002607
vt 0.001359 0.437038
vt 0.001359 0.171568
vt 0.054453 0.171568
vt 0.054453 0.437038
vt 0.054720 0.171568
vt 0.054720 0.437037
vt 0.001087 0.399113
vt 0.001087 0.209492
vt 0.001359 0.437038
vt 0.001359 0.171568
vt 0.054453 0.171568
vt 0.054453 0.437038
vt 0.054722 0.605996
vt 0.001087 0.605996
vt 0.001087 0.002607
vt 0.054721 0.002607
vt 0.054720 0.171568
vt 0.054720 0.437037
vt 0.001087 0.399113
vt 0.001087 0.209492
vn 0.0000 1.0000 0.0000
vn 0.0000 0.0000 -1.0000
vn 0.0000 -1.0000 0.0000
vn 0.0000 -0.0000 1.0000
vn -1.0000 0.0000 0.0000
vn 1.0000 0.0000 0.0000
vn 0.0000 -0.7071 0.7071
vn 0.0000 -0.7071 -0.7071
vn 0.7071 -0.7071 -0.0000
vn -0.7071 -0.7071 0.0000
usemtl None.003
s off
f 25/71/7 26/72/7 27/73/7 28/74/7
f 26/75/8 29/76/8 30/77/8 27/78/8
f 29/79/9 31/80/9 32/81/9 30/82/9
f 31/83/10 25/84/10 28/85/10 32/86/10
f 28/87/11 27/88/11 30/89/11 32/90/11
f 31/91/12 29/92/12 26/93/12 25/94/12
f 35/95/9 34/96/9 33/97/9 36/98/9
f 37/99/9 38/100/9 39/101/9 40/102/9
f 41/103/9 42/104/9 43/105/9 44/106/9
f 45/107/7 46/108/7 47/109/7 48/110/7
f 47/111/10 46/112/10 49/113/10 50/114/10
f 51/115/13 52/116/13 53/117/13 54/118/13
f 55/119/8 56/120/8 54/121/8 53/122/8
f 51/123/7 56/124/7 55/125/7 52/126/7
f 45/127/14 48/128/14 50/129/14 49/130/14
f 59/131/9 58/132/9 57/133/9 60/134/9
f 61/135/7 62/136/7 63/137/7 64/138/7
f 63/139/12 62/140/12 65/141/12 66/142/12
f 67/143/15 68/144/15 69/145/15 70/146/15
f 71/147/11 72/148/11 70/149/11 69/150/11
f 67/151/7 72/152/7 71/153/7 68/154/7
f 61/155/16 64/156/16 66/157/16 65/158/16
o t-road-with-borders_Cube.001
v -1.822928 0.411696 1.836316
v -2.222936 0.411696 2.236307
v -0.972936 0.411696 2.236337
v -0.972927 0.411696 1.836336
v -1.822928 0.011696 1.836316
v -2.222936 0.011696 2.236307
v -2.222906 0.011696 0.986307
v -1.822907 0.011696 0.986317
v -0.972927 0.011696 1.836336
v -2.222907 0.411696 0.986308
v -1.822907 0.411696 0.986317
v -0.972936 0.011696 2.236337
v -2.026434 0.649345 1.563068
v -1.822921 0.649345 1.563073
v -1.822921 0.411696 1.563073
v -2.026434 0.411696 1.563068
v -1.822928 0.649345 1.836316
v -1.549683 0.649345 1.836322
v -1.549684 0.411696 1.836322
v -1.822928 0.411696 1.836316
v -2.026445 0.649345 2.039825
v -1.549688 0.649345 2.039836
v -1.549688 0.411696 2.039836
v -2.026445 0.411696 2.039825
vt 0.054722 0.116582
vt 0.001086 0.170223
vt 0.001087 0.002607
vt 0.054721 0.002607
vt 0.001087 0.304302
vt 0.054722 0.304302
vt 0.054722 0.605996
vt 0.001087 0.605996
vt 0.001087 0.116582
vt 0.001087 0.002607
vt 0.054721 0.002607
vt 0.054722 0.116582
vt 0.081559 0.208121
vt 0.081559 0.149483
vt 0.140198 0.149483
vt 0.140198 0.208121
vt 0.001085 0.388108
vt 0.001085 0.220495
vt 0.054721 0.220495
vt 0.054721 0.388108
vt 0.081422 0.238144
vt 0.081422 0.179506
vt 0.140060 0.179506
vt 0.140060 0.238144
vt 0.001085 0.388108
vt 0.001085 0.220495
vt 0.054721 0.220495
vt 0.054721 0.388108
vt 0.001087 0.116582
vt 0.001087 0.002607
vt 0.054721 0.002607
vt 0.054722 0.116582
vt 0.001087 0.002607
vt 0.054721 0.002607
vt 0.054723 0.170223
vt 0.001086 0.170223
vt 0.001087 0.002607
vt 0.054723 0.056244
vt 0.111176 0.251563
vt 0.111176 0.196104
vt 0.139421 0.196104
vt 0.139421 0.251563
vt 0.054954 0.307670
vt 0.054954 0.252857
vt 0.083783 0.252857
vt 0.083783 0.307670
vt 0.082886 0.307779
vt 0.056127 0.307779
vt 0.056127 0.254131
vt 0.082886 0.254131
vt 0.111176 0.251563
vt 0.111176 0.196104
vt 0.139421 0.196104
vt 0.139421 0.251563
vt 0.054954 0.307670
vt 0.054954 0.252857
vt 0.083783 0.252857
vt 0.083783 0.307670
vt 0.056127 0.307779
vt 0.082886 0.307779
vt 0.082886 0.361427
vt 0.056127 0.361427
vt 0.056127 0.254131
vt 0.082886 0.254131
vt 0.054954 0.362483
vt 0.083783 0.362483
vt 0.082886 0.361427
vt 0.056127 0.361427
vt 0.054954 0.362483
vt 0.083783 0.362483
vn 0.0000 1.0000 -0.0000
vn -0.0000 -1.0000 -0.0000
vn 0.0000 -0.0000 -1.0000
vn -1.0000 -0.0000 -0.0000
vn 1.0000 -0.0000 0.0000
vn -0.0000 0.0000 1.0000
usemtl None.004
s off
f 73/159/17 74/160/17 75/161/17 76/162/17
f 77/163/18 78/164/18 79/165/18 80/166/18
f 73/167/19 76/168/19 81/169/19 77/170/19
f 82/171/19 83/172/19 80/173/19 79/174/19
f 74/175/20 82/176/20 79/177/20 78/178/20
f 76/179/21 75/180/21 84/181/21 81/182/21
f 75/183/22 74/184/22 78/185/22 84/186/22
f 83/187/21 73/188/21 77/189/21 80/190/21
f 81/191/18 84/192/18 78/164/18 77/163/18
f 83/193/17 82/194/17 74/195/17 73/196/17
f 85/197/19 86/198/19 87/199/19 88/200/19
f 89/201/19 90/202/19 91/203/19 92/204/19
f 93/205/17 89/206/17 86/207/17 85/208/17
f 90/209/21 94/210/21 95/211/21 91/212/21
f 93/213/20 85/214/20 88/215/20 96/216/20
f 96/217/18 92/218/18 91/219/18 95/220/18
f 88/221/18 87/222/18 92/218/18 96/217/18
f 94/223/22 93/213/22 96/216/22 95/224/22
f 94/225/17 90/226/17 89/206/17 93/205/17
f 86/227/21 89/201/21 92/204/21 87/228/21
o t-road-with-borders_Cube.002
v -1.828056 0.411696 -1.818970
v -2.228870 0.411696 -2.218154
v -2.226326 0.411696 -0.968157
v -1.826325 0.411696 -0.968971
v -1.828056 0.011696 -1.818971
v -2.228870 0.011696 -2.218154
v -0.978873 0.011696 -2.220698
v -0.978058 0.011696 -1.820700
v -1.826325 0.011696 -0.968971
v -0.978873 0.411696 -2.220699
v -0.978058 0.411696 -1.820700
v -2.226326 0.011696 -0.968157
v -1.555227 0.649345 -2.023039
v -1.554813 0.649345 -1.819527
v -1.554813 0.411696 -1.819527
v -1.555227 0.411696 -2.023039
v -1.828056 0.649345 -1.818970
v -1.827500 0.649345 -1.545727
v -1.827500 0.411696 -1.545727
v -1.828056 0.411696 -1.818970
v -2.031984 0.649345 -2.022069
v -2.031013 0.649345 -1.545313
v -2.031013 0.411696 -1.545313
v -2.031984 0.411696 -2.022069
vt 0.054722 0.116582
vt 0.001086 0.170223
vt 0.001087 0.002607
vt 0.054721 0.002607
vt 0.001087 0.304302
vt 0.054722 0.304302
vt 0.054722 0.605996
vt 0.001087 0.605996
vt 0.001087 0.116582
vt 0.001087 0.002607
vt 0.054721 0.002607
vt 0.054722 0.116582
vt 0.081559 0.208121
vt 0.081559 0.149483
vt 0.140198 0.149483
vt 0.140198 0.208121
vt 0.001085 0.388108
vt 0.001085 0.220495
vt 0.054721 0.220495
vt 0.054721 0.388108
vt 0.081422 0.238144
vt 0.081422 0.179506
vt 0.140060 0.179506
vt 0.140060 0.238144
vt 0.001085 0.388108
vt 0.001085 0.220495
vt 0.054721 0.220495
vt 0.054721 0.388108
vt 0.001087 0.116582
vt 0.001087 0.002607
vt 0.054721 0.002607
vt 0.054722 0.116582
vt 0.001087 0.002607
vt 0.054721 0.002607
vt 0.054723 0.170223
vt 0.001086 0.170223
vt 0.001087 0.002607
vt 0.054723 0.056244
vt 0.111176 0.251563
vt 0.111176 0.196104
vt 0.139421 0.196104
vt 0.139421 0.251563
vt 0.054954 0.307670
vt 0.054954 0.252857
vt 0.083783 0.252857
vt 0.083783 0.307670
vt 0.082886 0.307779
vt 0.056127 0.307779
vt 0.056127 0.254131
vt 0.082886 0.254131
vt 0.111176 0.251563
vt 0.111176 0.196104
vt 0.139421 0.196104
vt 0.139421 0.251563
vt 0.054954 0.307670
vt 0.054954 0.252857
vt 0.083783 0.252857
vt 0.083783 0.307670
vt 0.056127 0.307779
vt 0.082886 0.307779
vt 0.082886 0.361427
vt 0.056127 0.361427
vt 0.056127 0.254131
vt 0.082886 0.254131
vt 0.054954 0.362483
vt 0.083783 0.362483
vt 0.082886 0.361427
vt 0.056127 0.361427
vt 0.054954 0.362483
vt 0.083783 0.362483
vn 0.0000 1.0000 0.0000
vn 0.0000 -1.0000 -0.0000
vn 1.0000 0.0000 -0.0020
vn -0.0020 -0.0000 -1.0000
vn 0.0020 -0.0000 1.0000
vn -1.0000 0.0000 0.0020
usemtl None.005
s off
f 97/229/23 98/230/23 99/231/23 100/232/23
f 101/233/24 102/234/24 103/235/24 104/236/24
f 97/237/25 100/238/25 105/239/25 101/240/25
f 106/241/25 107/242/25 104/243/25 103/244/25
f 98/245/26 106/246/26 103/247/26 102/248/26
f 100/249/27 99/250/27 108/251/27 105/252/27
f 99/253/28 98/254/28 102/255/28 108/256/28
f 107/257/27 97/258/27 101/259/27 104/260/27
f 105/261/24 108/262/24 102/234/24 101/233/24
f 107/263/23 106/264/23 98/265/23 97/266/23
f 109/267/25 110/268/25 111/269/25 112/270/25
f 113/271/25 114/272/25 115/273/25 116/274/25
f 117/275/23 113/276/23 110/277/23 109/278/23
f 114/279/27 118/280/27 119/281/27 115/282/27
f 117/283/26 109/284/26 112/285/26 120/286/26
f 120/287/24 116/288/24 115/289/24 119/290/24
f 112/291/24 111/292/24 116/288/24 120/287/24
f 118/293/28 117/283/28 120/286/28 119/294/28
f 118/295/23 114/296/23 113/276/23 117/275/23
f 110/297/27 113/271/27 116/274/27 111/298/27
o t-road-with-borders_Cube.003
v 1.842584 0.411696 -1.825728
v 2.244209 0.411696 -2.224097
v 0.994219 0.411696 -2.229188
v 0.992590 0.411696 -1.829190
v 1.842584 0.011696 -1.825728
v 2.244209 0.011696 -2.224097
v 2.239117 0.011696 -0.974107
v 1.839122 0.011696 -0.975736
v 0.992590 0.011696 -1.829190
v 2.239118 0.411696 -0.974107
v 1.839122 0.411696 -0.975736
v 0.994219 0.011696 -2.229188
v 2.044982 0.649345 -1.551658
v 1.841471 0.649345 -1.552487
v 1.841471 0.411696 -1.552487
v 2.044982 0.411696 -1.551658
v 1.842584 0.649345 -1.825728
v 1.569342 0.649345 -1.826841
v 1.569342 0.411696 -1.826841
v 1.842584 0.411696 -1.825728
v 2.046924 0.649345 -2.028412
v 1.570171 0.649345 -2.030354
v 1.570171 0.411696 -2.030354
v 2.046924 0.411696 -2.028412
vt 0.054722 0.116582
vt 0.001086 0.170223
vt 0.001087 0.002607
vt 0.054721 0.002607
vt 0.001087 0.304302
vt 0.054722 0.304302
vt 0.054722 0.605996
vt 0.001087 0.605996
vt 0.001087 0.116582
vt 0.001087 0.002607
vt 0.054721 0.002607
vt 0.054722 0.116582
vt 0.081559 0.208121
vt 0.081559 0.149483
vt 0.140198 0.149483
vt 0.140198 0.208121
vt 0.001085 0.388108
vt 0.001085 0.220495
vt 0.054721 0.220495
vt 0.054721 0.388108
vt 0.081422 0.238144
vt 0.081422 0.179506
vt 0.140060 0.179506
vt 0.140060 0.238144
vt 0.001085 0.388108
vt 0.001085 0.220495
vt 0.054721 0.220495
vt 0.054721 0.388108
vt 0.001087 0.116582
vt 0.001087 0.002607
vt 0.054721 0.002607
vt 0.054722 0.116582
vt 0.001087 0.002607
vt 0.054721 0.002607
vt 0.054723 0.170223
vt 0.001086 0.170223
vt 0.001087 0.002607
vt 0.054723 0.056244
vt 0.111176 0.251563
vt 0.111176 0.196104
vt 0.139421 0.196104
vt 0.139421 0.251563
vt 0.054954 0.307670
vt 0.054954 0.252857
vt 0.083783 0.252857
vt 0.083783 0.307670
vt 0.082886 0.307779
vt 0.056127 0.307779
vt 0.056127 0.254131
vt 0.082886 0.254131
vt 0.111176 0.251563
vt 0.111176 0.196104
vt 0.139421 0.196104
vt 0.139421 0.251563
vt 0.054954 0.307670
vt 0.054954 0.252857
vt 0.083783 0.252857
vt 0.083783 0.307670
vt 0.056127 0.307779
vt 0.082886 0.307779
vt 0.082886 0.361427
vt 0.056127 0.361427
vt 0.056127 0.254131
vt 0.082886 0.254131
vt 0.054954 0.362483
vt 0.083783 0.362483
vt 0.082886 0.361427
vt 0.056127 0.361427
vt 0.054954 0.362483
vt 0.083783 0.362483
vn -0.0000 1.0000 0.0000
vn 0.0000 -1.0000 0.0000
vn -0.0041 0.0000 1.0000
vn 1.0000 -0.0000 0.0041
vn -1.0000 -0.0000 -0.0041
vn 0.0041 0.0000 -1.0000
usemtl None.006
s off
f 121/299/29 122/300/29 123/301/29 124/302/29
f 125/303/30 126/304/30 127/305/30 128/306/30
f 121/307/31 124/308/31 129/309/31 125/310/31
f 130/311/31 131/312/31 128/313/31 127/314/31
f 122/315/32 130/316/32 127/317/32 126/318/32
f 124/319/33 123/320/33 132/321/33 129/322/33
f 123/323/34 122/324/34 126/325/34 132/326/34
f 131/327/33 121/328/33 125/329/33 128/330/33
f 129/331/30 132/332/30 126/304/30 125/303/30
f 131/333/29 130/334/29 122/335/29 121/336/29
f 133/337/31 134/338/31 135/339/31 136/340/31
f 137/341/31 138/342/31 139/343/31 140/344/31
f 141/345/29 137/346/29 134/347/29 133/348/29
f 138/349/33 142/350/33 143/351/33 139/352/33
f 141/353/32 133/354/32 136/355/32 144/356/32
f 144/357/30 140/358/30 139/359/30 143/360/30
f 136/361/30 135/362/30 140/358/30 144/357/30
f 142/363/34 141/353/34 144/356/34 143/364/34
f 142/365/29 138/366/29 137/346/29 141/345/29
f 134/367/33 137/341/33 140/344/33 135/368/33
