# Blender v2.91.2 OBJ File: ''
# www.blender.org
mtllib PiezaTBase.mtl
o t-road-with-borders_Cube.113
v -2.250000 1.000000 1.000000
v -2.250000 1.000000 -1.000000
v -2.250000 -1.000000 -1.000000
v -2.250000 -1.000000 1.000000
v -1.000000 1.000000 1.000000
v -1.000000 -1.000000 1.000000
v 0.999999 1.000000 -1.000000
v 0.999999 1.000000 1.000000
v 0.999999 -1.000000 1.000000
v 0.999999 -1.000000 -1.000000
v 1.000000 1.000000 2.250000
v -1.000000 1.000000 2.250000
v -1.000000 -1.000000 2.250000
v 1.000000 -1.000000 2.250000
v -1.000000 1.000000 -2.250000
v 1.000000 1.000000 -2.250000
v 1.000000 -1.000000 -2.250000
v -1.000000 -1.000000 -2.250000
v -1.000000 1.000000 -1.000000
v -1.000000 -1.000000 -1.000000
v 0.000000 1.000000 0.000000
v 0.000000 -1.000000 -0.000000
v 1.000000 1.000000 2.250000
v 1.000000 1.000000 -2.250000
v 1.000000 0.600000 -2.250000
v 1.000000 0.600000 2.250000
v -1.000001 0.600000 1.000000
v -1.000001 0.600000 2.250000
v -2.250000 1.000000 -1.000000
v -2.250000 0.600000 -1.000000
v -2.250001 0.600000 1.000000
v -1.000001 1.000000 1.000000
v -1.000001 1.000000 2.250000
v -1.000000 1.000000 -2.250000
v -1.000000 0.600000 -2.250000
v -1.000000 1.000000 -1.000000
v -1.000000 0.600000 -1.000000
v -2.250001 1.000000 1.000000
vt 0.000915 0.362414
vt 0.000915 0.140220
vt 0.223109 0.140220
vt 0.223109 0.362415
vt 0.000934 0.320740
vt 0.000934 0.181895
vt 0.223086 0.181895
vt 0.223086 0.320740
vt 0.000915 0.362414
vt 0.000915 0.140220
vt 0.223109 0.140220
vt 0.223109 0.362415
vt 0.000915 0.362414
vt 0.000915 0.140220
vt 0.223109 0.140220
vt 0.223109 0.362415
vt 0.000915 0.362414
vt 0.000915 0.140220
vt 0.223109 0.140220
vt 0.223109 0.362415
vt 0.000934 0.320740
vt 0.000934 0.181895
vt 0.223086 0.181895
vt 0.223086 0.320740
vt 0.448610 0.166686
vt 0.337513 0.277783
vt 0.226416 0.166686
vt 0.226416 0.027814
vt 0.448610 0.027814
vt 0.000918 0.001350
vt 0.223102 0.001350
vt 0.223109 0.140220
vt 0.112010 0.251307
vt 0.000915 0.140220
vt 0.000934 0.320740
vt 0.000934 0.181895
vt 0.223086 0.181895
vt 0.223086 0.320740
vt 0.446381 0.169029
vt 0.337632 0.277777
vt 0.228884 0.169029
vt 0.001526 0.360855
vt 0.001526 0.141454
vt 0.111226 0.251155
vt 0.000934 0.001375
vt 0.223086 0.001375
vt 0.448610 0.166686
vt 0.226416 0.166686
vt 0.226416 0.027814
vt 0.448610 0.027814
vt 0.000918 0.001350
vt 0.223102 0.001350
vt 0.223109 0.140220
vt 0.000915 0.140220
vt 0.000934 0.320740
vt 0.000934 0.181895
vt 0.223086 0.181895
vt 0.223086 0.320740
vt 0.448610 0.166686
vt 0.226416 0.166686
vt 0.226416 0.027814
vt 0.448610 0.027814
vt 0.223102 0.501494
vt 0.000918 0.501494
vt 0.000918 0.362629
vt 0.112010 0.251537
vt 0.223102 0.362629
vt 0.000934 0.501260
vt 0.223086 0.501260
vt 0.054721 0.002607
vt 0.054722 0.605996
vt 0.001087 0.605996
vt 0.001087 0.002607
vt 0.054722 0.304302
vt 0.054722 0.605996
vt 0.001087 0.605996
vt 0.001087 0.304302
vt 0.054722 0.304302
vt 0.054722 0.605996
vt 0.001087 0.605996
vt 0.001087 0.304302
vt 0.054721 0.002607
vt 0.001087 0.002607
vt 0.054721 0.002607
vt 0.001087 0.002607
vt 0.224761 0.251317
vt 0.000914 0.251317
vt 0.000914 0.251317
vt 0.226417 0.251317
vt 0.223106 0.251317
vt 0.000914 0.251317
vt 0.224761 0.251317
vt 0.224761 0.251317
vt 0.000914 0.251317
vt 0.000914 0.251317
vt 0.224761 0.251317
vn -1.0000 0.0000 0.0000
vn 0.0000 -0.0000 1.0000
vn 1.0000 0.0000 0.0000
vn 0.0000 0.0000 -1.0000
vn -0.0000 1.0000 0.0000
vn -0.0000 -1.0000 -0.0000
vn 0.7071 -0.0000 0.7071
vn 0.7071 0.0000 -0.7071
vn -0.7071 0.0000 -0.7071
vn -0.7071 -0.0000 0.7071
usemtl None.001
s off
f 1/1/1 2/2/1 3/3/1 4/4/1
f 5/5/2 1/6/2 4/7/2 6/8/2
f 7/9/3 8/10/3 9/11/3 10/12/3
f 11/13/2 12/14/2 13/15/2 14/16/2
f 15/17/4 16/18/4 17/19/4 18/20/4
f 19/21/1 15/22/1 18/23/1 20/24/1
f 5/25/5 21/26/5 19/27/5 2/28/5 1/29/5
f 4/30/6 3/31/6 20/32/6 22/33/6 6/34/6
f 2/35/4 19/36/4 20/37/4 3/38/4
f 7/39/5 21/40/5 8/41/5
f 10/42/6 9/43/6 22/44/6
f 8/10/3 11/45/3 14/46/3 9/11/3
f 8/47/5 21/26/5 5/48/5 12/49/5 11/50/5
f 14/51/6 13/52/6 6/53/6 22/33/6 9/54/6
f 12/55/1 5/56/1 6/57/1 13/58/1
f 19/59/5 21/26/5 7/60/5 16/61/5 15/62/5
f 18/63/6 17/64/6 10/65/6 22/66/6 20/67/6
f 16/68/3 7/9/3 10/12/3 17/69/3
f 23/70/1 24/71/1 25/72/1 26/73/1
f 32/74/3 33/75/3 28/76/3 27/77/3
f 36/78/2 29/79/2 30/80/2 37/81/2
f 38/82/4 32/74/4 27/77/4 31/83/4
f 34/84/3 36/78/3 37/81/3 35/85/3
usemtl None_NONE
f 5/86/7 6/87/7 22/88/7 21/89/7
f 21/90/8 22/88/8 20/91/8 19/92/8
f 7/93/9 10/94/9 22/88/9 21/89/9
f 21/90/10 22/88/10 9/95/10 8/96/10
